<?xml version="1.0" encoding="UTF-8" standalone="no"?><!DOCTYPE svg PUBLIC "-//W3C//DTD SVG 1.1//EN" "http://www.w3.org/Graphics/SVG/1.1/DTD/svg11.dtd"><svg width="100%" height="100%" viewBox="0 0 3000 3000" version="1.1" xmlns="http://www.w3.org/2000/svg" xmlns:xlink="http://www.w3.org/1999/xlink" xml:space="preserve" xmlns:serif="http://www.serif.com/" style="fill-rule:evenodd;clip-rule:evenodd;stroke-linejoin:round;stroke-miterlimit:2;"><rect id="White-BlueLatteTealMocha" x="0" y="0" width="3000" height="3000" style="fill:none;"/><path d="M1500,0l1299.04,750l0,1500l-1299.04,750l-1299.04,-750l-0,-1500l1299.04,-750Z" style="fill:url(#_Radial1);"/><g transform="matrix(958.333,0,0,958.333,378.75,1746.29)"><path d="M0.07,-0.424l0.146,-0.276l0.188,-0l0.146,0.276l-0.14,-0l-0.091,-0.196l-0.018,-0l-0.091,0.196l-0.14,-0Z" style="fill:#fff;fill-rule:nonzero;"/></g><g transform="matrix(958.333,0,0,958.333,972.917,1746.29)"><path d="M0.368,0.014c-0.045,0 -0.079,-0.008 -0.103,-0.023c-0.024,-0.015 -0.042,-0.032 -0.053,-0.051l-0.018,0l0,0.06l-0.124,0l0,-0.7l0.126,0l0,0.261l0.018,0c0.007,-0.012 0.017,-0.023 0.029,-0.034c0.013,-0.011 0.029,-0.019 0.049,-0.026c0.021,-0.007 0.046,-0.011 0.076,-0.011c0.04,0 0.077,0.01 0.111,0.03c0.034,0.019 0.061,0.048 0.082,0.086c0.021,0.038 0.031,0.084 0.031,0.138l-0,0.016c-0,0.054 -0.01,0.1 -0.031,0.138c-0.021,0.038 -0.048,0.067 -0.082,0.087c-0.034,0.019 -0.071,0.029 -0.111,0.029Zm-0.038,-0.11c0.039,0 0.071,-0.012 0.097,-0.037c0.026,-0.025 0.039,-0.062 0.039,-0.11l0,-0.01c0,-0.048 -0.013,-0.084 -0.039,-0.109c-0.025,-0.025 -0.058,-0.038 -0.097,-0.038c-0.039,-0 -0.071,0.013 -0.097,0.038c-0.026,0.025 -0.039,0.061 -0.039,0.109l-0,0.01c-0,0.048 0.013,0.085 0.039,0.11c0.026,0.025 0.058,0.037 0.097,0.037Z" style="fill:#fff;fill-rule:nonzero;"/></g><g transform="matrix(958.333,0,0,958.333,1584.33,1746.29)"><path d="M-0.022,0.2l0,-0.108l0.066,-0c0.019,0 0.028,-0.01 0.028,-0.03l0,-0.558l0.126,0l0,0.584c0,0.034 -0.01,0.061 -0.03,0.082c-0.02,0.02 -0.047,0.03 -0.08,0.03l-0.11,0Zm0.157,-0.754c-0.023,0 -0.042,-0.007 -0.058,-0.022c-0.015,-0.015 -0.023,-0.034 -0.023,-0.058c-0,-0.024 0.008,-0.043 0.023,-0.058c0.016,-0.015 0.035,-0.022 0.058,-0.022c0.023,0 0.043,0.007 0.058,0.022c0.015,0.015 0.023,0.034 0.023,0.058c0,0.024 -0.008,0.043 -0.023,0.058c-0.015,0.015 -0.035,0.022 -0.058,0.022Z" style="fill:#fff;fill-rule:nonzero;"/></g><g transform="matrix(958.333,0,0,958.333,1841.17,1746.29)"><path d="M0.11,-0l-0.07,-0.496l0.125,0l0.044,0.411l0.018,-0l0.064,-0.411l0.202,0l0.064,0.411l0.018,-0l0.044,-0.411l0.125,0l-0.07,0.496l-0.209,-0l-0.064,-0.411l-0.018,0l-0.064,0.411l-0.209,-0Z" style="fill:#fff;fill-rule:nonzero;"/></g><g transform="matrix(958.333,0,0,958.333,2592.5,1746.29)"></g><defs><radialGradient id="_Radial1" cx="0" cy="0" r="1" gradientUnits="userSpaceOnUse" gradientTransform="matrix(2973.45,1673.15,-1673.15,2973.45,200.962,781.136)"><stop offset="0" style="stop-color:#1e66f5;stop-opacity:1"/><stop offset="1" style="stop-color:#94e2d5;stop-opacity:1"/></radialGradient></defs></svg>